<?xml version="1.0"?>
<svg xmlns="http://www.w3.org/2000/svg" xmlns:xlink="http://www.w3.org/1999/xlink" xmlns:svgjs="http://svgjs.com/svgjs" version="1.1" width="512" height="512" x="0" y="0" viewBox="0 0 74 74" style="enable-background:new 0 0 512 512" xml:space="preserve" class=""><g><path xmlns="http://www.w3.org/2000/svg" d="M71.154,41.159a1,1,0,0,1-.707-.293L61.831,32.25a1,1,0,1,1,1.414-1.414l8.616,8.616a1,1,0,0,1-.707,1.707Z" fill="#70927b" data-original="#000000" style="" class=""/><path xmlns="http://www.w3.org/2000/svg" d="M42.611,12.616a1,1,0,0,1-.707-.293L33.288,3.707A1,1,0,0,1,34.7,2.293l8.616,8.616a1,1,0,0,1-.707,1.707Z" fill="#70927b" data-original="#000000" style="" class=""/><path xmlns="http://www.w3.org/2000/svg" d="M65.782,46.531a1,1,0,0,1-.707-.293l-8.616-8.616a1,1,0,1,1,1.414-1.414l8.616,8.616a1,1,0,0,1-.707,1.707Z" fill="#70927b" data-original="#000000" style="" class=""/><path xmlns="http://www.w3.org/2000/svg" d="M37.239,17.988a1,1,0,0,1-.707-.293L27.916,9.079A1,1,0,1,1,29.33,7.665l8.616,8.616a1,1,0,0,1-.707,1.707Z" fill="#70927b" data-original="#000000" style="" class=""/><path xmlns="http://www.w3.org/2000/svg" d="M60.41,51.9a1,1,0,0,1-.707-.293l-8.616-8.616A1,1,0,1,1,52.5,41.58L61.117,50.2A1,1,0,0,1,60.41,51.9Z" fill="#70927b" data-original="#000000" style="" class=""/><path xmlns="http://www.w3.org/2000/svg" d="M31.867,23.36a1,1,0,0,1-.707-.293l-8.616-8.616a1,1,0,1,1,1.414-1.414l8.616,8.616a1,1,0,0,1-.707,1.707Z" fill="#70927b" data-original="#000000" style="" class=""/><path xmlns="http://www.w3.org/2000/svg" d="M55.03,57.283a1,1,0,0,1-.707-.293l-8.616-8.616a1,1,0,1,1,1.414-1.415l8.616,8.617a1,1,0,0,1-.707,1.707Z" fill="#70927b" data-original="#000000" style="" class=""/><path xmlns="http://www.w3.org/2000/svg" d="M26.487,28.74a1,1,0,0,1-.707-.293l-8.616-8.616a1,1,0,0,1,1.414-1.414l8.616,8.616a1,1,0,0,1-.707,1.707Z" fill="#70927b" data-original="#000000" style="" class=""/><path xmlns="http://www.w3.org/2000/svg" d="M49.658,62.655a1,1,0,0,1-.707-.293l-8.616-8.616a1,1,0,0,1,1.414-1.414l8.616,8.616a1,1,0,0,1-.707,1.707Z" fill="#70927b" data-original="#000000" style="" class=""/><path xmlns="http://www.w3.org/2000/svg" d="M21.115,34.112a1,1,0,0,1-.707-.293L11.792,25.2a1,1,0,0,1,1.414-1.414l8.616,8.616a1,1,0,0,1-.707,1.707Z" fill="#70927b" data-original="#000000" style="" class=""/><path xmlns="http://www.w3.org/2000/svg" d="M36.462,58.625a1,1,0,0,1-.707-.293L15.822,38.4a1,1,0,0,1,0-1.414L46.487,6.321a1,1,0,0,1,1.414,0L67.834,26.253a1,1,0,0,1,0,1.414L37.169,58.332A1,1,0,0,1,36.462,58.625ZM17.943,37.692,36.462,56.21,65.713,26.96,47.194,8.442Z" fill="#70927b" data-original="#000000" style="" class=""/><path xmlns="http://www.w3.org/2000/svg" d="M60.993,21.827a1,1,0,0,1-.707-.293L52.62,13.868a1,1,0,0,1,0-1.414l3.833-3.833a1,1,0,0,1,1.414,0l7.666,7.666a1,1,0,0,1,0,1.414L61.7,21.534A1,1,0,0,1,60.993,21.827Zm-6.252-8.666,6.252,6.252,2.419-2.419L57.16,10.742Z" fill="#70927b" data-original="#000000" style="" class=""/><path xmlns="http://www.w3.org/2000/svg" d="M58.324,28.329a1,1,0,0,1-.707-.293L56.282,26.7A1,1,0,0,1,57.7,25.288l1.335,1.334a1,1,0,0,1-.707,1.707Z" fill="#70927b" data-original="#000000" style="" class=""/><path xmlns="http://www.w3.org/2000/svg" d="M53.088,23.093a1,1,0,0,1-.707-.293l-1.335-1.335a1,1,0,0,1,1.414-1.414L53.8,21.386a1,1,0,0,1-.707,1.707Z" fill="#70927b" data-original="#000000" style="" class=""/><path xmlns="http://www.w3.org/2000/svg" d="M47.852,17.856a.993.993,0,0,1-.707-.293L45.81,16.229a1,1,0,1,1,1.414-1.414l1.335,1.334a1,1,0,0,1-.707,1.707Z" fill="#70927b" data-original="#000000" style="" class=""/><path xmlns="http://www.w3.org/2000/svg" d="M52.952,33.7a.993.993,0,0,1-.707-.293L50.91,32.073a1,1,0,0,1,1.414-1.414l1.335,1.335a1,1,0,0,1-.707,1.707Z" fill="#70927b" data-original="#000000" style="" class=""/><path xmlns="http://www.w3.org/2000/svg" d="M47.716,28.465a1,1,0,0,1-.707-.293l-1.335-1.335a1,1,0,0,1,1.414-1.414l1.335,1.335a1,1,0,0,1-.707,1.707Z" fill="#70927b" data-original="#000000" style="" class=""/><path xmlns="http://www.w3.org/2000/svg" d="M42.479,23.229a1,1,0,0,1-.707-.293L40.438,21.6a1,1,0,1,1,1.414-1.414l1.335,1.334a1,1,0,0,1-.708,1.708Z" fill="#70927b" data-original="#000000" style="" class=""/><path xmlns="http://www.w3.org/2000/svg" d="M47.58,39.073a1,1,0,0,1-.707-.293l-1.334-1.335a1,1,0,0,1,1.414-1.414l1.334,1.335a1,1,0,0,1-.707,1.707Z" fill="#70927b" data-original="#000000" style="" class=""/><path xmlns="http://www.w3.org/2000/svg" d="M42.344,33.836a.993.993,0,0,1-.707-.293L40.3,32.209A1,1,0,0,1,41.717,30.8l1.334,1.334a1,1,0,0,1-.707,1.707Z" fill="#70927b" data-original="#000000" style="" class=""/><path xmlns="http://www.w3.org/2000/svg" d="M37.107,28.6a1,1,0,0,1-.707-.293l-1.334-1.334a1,1,0,1,1,1.414-1.414l1.334,1.334a1,1,0,0,1-.707,1.707Z" fill="#70927b" data-original="#000000" style="" class=""/><path xmlns="http://www.w3.org/2000/svg" d="M42.209,44.445a1,1,0,0,1-.707-.293l-1.335-1.335A1,1,0,0,1,41.581,41.4l1.335,1.335a1,1,0,0,1-.707,1.707Z" fill="#70927b" data-original="#000000" style="" class=""/><path xmlns="http://www.w3.org/2000/svg" d="M36.973,39.208a1,1,0,0,1-.707-.292l-1.335-1.335a1,1,0,0,1,1.414-1.414L37.68,37.5a1,1,0,0,1-.707,1.707Z" fill="#70927b" data-original="#000000" style="" class=""/><path xmlns="http://www.w3.org/2000/svg" d="M31.736,33.972a1,1,0,0,1-.707-.293l-1.335-1.335a1,1,0,0,1,1.414-1.414l1.335,1.335a1,1,0,0,1-.707,1.707Z" fill="#70927b" data-original="#000000" style="" class=""/><path xmlns="http://www.w3.org/2000/svg" d="M36.837,49.816a.993.993,0,0,1-.707-.293L34.8,48.189a1,1,0,0,1,1.414-1.414l1.335,1.334a1,1,0,0,1-.707,1.707Z" fill="#70927b" data-original="#000000" style="" class=""/><path xmlns="http://www.w3.org/2000/svg" d="M31.6,44.58a1,1,0,0,1-.707-.293l-1.335-1.334a1,1,0,1,1,1.414-1.414l1.335,1.334A1,1,0,0,1,31.6,44.58Z" fill="#70927b" data-original="#000000" style="" class=""/><path xmlns="http://www.w3.org/2000/svg" d="M26.364,39.344a1,1,0,0,1-.707-.293l-1.335-1.335A1,1,0,0,1,25.736,36.3l1.335,1.335a1,1,0,0,1-.707,1.707Z" fill="#70927b" data-original="#000000" style="" class=""/><path xmlns="http://www.w3.org/2000/svg" d="M7.34,72a5.5,5.5,0,0,1-3.887-9.387l19-19a1,1,0,0,1,.707-.293h0a1,1,0,0,1,.708.293l6.36,6.37a1,1,0,0,1,0,1.413l-5.43,5.44a1,1,0,1,1-1.416-1.413l4.724-4.733-4.947-4.955L4.867,64.027a3.511,3.511,0,0,0,0,4.948,3.589,3.589,0,0,0,4.954,0l1.6-1.592a1,1,0,0,1,1.41,1.418l-1.6,1.59A5.473,5.473,0,0,1,7.34,72Z" fill="#70927b" data-original="#000000" style="" class=""/><path xmlns="http://www.w3.org/2000/svg" d="M17.08,64.14a1,1,0,0,1-.707-1.707l2.06-2.06a1,1,0,0,1,1.414,1.414l-2.06,2.06A1,1,0,0,1,17.08,64.14Z" fill="#70927b" data-original="#000000" style="" class=""/></g></svg>
