<?xml version="1.0"?>
<svg xmlns="http://www.w3.org/2000/svg" xmlns:xlink="http://www.w3.org/1999/xlink" xmlns:svgjs="http://svgjs.com/svgjs" version="1.1" width="512" height="512" x="0" y="0" viewBox="0 0 512 512" style="enable-background:new 0 0 512 512" xml:space="preserve"><g>
<g xmlns="http://www.w3.org/2000/svg">
	<g>
		<path d="M466.722,366.141c-8.977-5.961-20.254-7.028-30.164-2.854c-60.268,25.376-131.894,38.79-207.133,38.79    c-59.431,0-118.099-8.655-169.662-25.03c-14.076-4.472-28.992-2.027-40.925,6.704C6.866,392.51,0,406.039,0,420.869    c0,20.151,13.439,38.243,32.683,44c50.972,15.246,108.496,23.305,166.354,23.305c51.636,0,101.492-6.138,148.182-18.243    c45.266-11.736,85.249-28.446,118.84-49.666c9.439-5.963,15.074-16.157,15.074-27.27    C481.133,382.171,475.746,372.132,466.722,366.141z M457.943,407.421c-65.952,41.665-160.319,65.561-258.906,65.561    c-56.404,0-112.423-7.839-162.001-22.668c-12.86-3.848-21.842-15.955-21.842-29.444c0-9.931,4.599-18.99,12.615-24.856    c5.361-3.923,11.623-5.948,18.008-5.948c3.117,0,6.262,0.483,9.347,1.463c53.031,16.841,113.289,25.743,174.261,25.743    c77.247,0,150.911-13.825,213.029-39.982c5.286-2.226,11.067-1.675,15.864,1.509c4.843,3.216,7.621,8.391,7.621,14.197    C465.939,398.866,462.95,404.258,457.943,407.421z" fill="#70927b" data-original="#000000" style=""/>
	</g>
</g>
<g xmlns="http://www.w3.org/2000/svg">
	<g>
		<path d="M47.1,398.004c-12.567,0-22.79,10.223-22.79,22.791s10.223,22.79,22.79,22.79c12.567,0,22.791-10.223,22.791-22.79    S59.668,398.004,47.1,398.004z M47.1,428.391c-4.189,0-7.597-3.407-7.597-7.597s3.407-7.597,7.597-7.597s7.597,3.407,7.597,7.597    S51.29,428.391,47.1,428.391z" fill="#70927b" data-original="#000000" style=""/>
	</g>
</g>
<g xmlns="http://www.w3.org/2000/svg">
	<g>
		<rect x="399.593" y="403.088" width="15.194" height="15.194" fill="#70927b" data-original="#000000" style=""/>
	</g>
</g>
<g xmlns="http://www.w3.org/2000/svg">
	<g>
		<polygon points="173.764,43.452 393.479,357.238 405.925,348.524 177.494,22.291 129.785,55.698 90.374,83.295 226.904,278.28     260.093,255.041 341.608,371.456 354.055,362.741 263.825,233.88 230.636,257.12 111.534,87.026 138.5,68.143   " fill="#70927b" data-original="#000000" style=""/>
	</g>
</g>
<g xmlns="http://www.w3.org/2000/svg">
	<g>
		<path d="M507.858,449.95c-5.979-8.54-16.895-11.959-26.547-8.312c-6.593,2.489-13.773,3.078-20.76,1.706l-2.931,14.909    c9.768,1.92,19.816,1.09,29.058-2.402c3.15-1.189,6.741-0.032,8.733,2.813c1.363,1.948,1.742,4.371,1.038,6.648    c-0.691,2.235-2.332,3.987-4.502,4.804c-21.333,8.04-45.17,4.929-63.764-8.325l-8.819,12.373    c14.393,10.26,31.357,15.545,48.49,15.545c9.915,0,19.891-1.773,29.451-5.376c6.594-2.486,11.573-7.783,13.66-14.535    C513.067,463.005,511.934,455.77,507.858,449.95z" fill="#70927b" data-original="#000000" style=""/>
	</g>
</g>
<g xmlns="http://www.w3.org/2000/svg">
	<g>
		
			<rect x="164.871" y="109.066" transform="matrix(0.8192 -0.5736 0.5736 0.8192 -35.725 120.0201)" width="15.194" height="15.194" fill="#70927b" data-original="#000000" style=""/>
	</g>
</g>
<g xmlns="http://www.w3.org/2000/svg">
	<g>
		
			<rect x="147.445" y="84.163" transform="matrix(0.8192 -0.5736 0.5736 0.8192 -24.5926 105.5218)" width="15.194" height="15.194" fill="#70927b" data-original="#000000" style=""/>
	</g>
</g>
<g xmlns="http://www.w3.org/2000/svg">
	<g>
		
			<rect x="234.583" y="208.646" transform="matrix(0.8192 -0.5736 0.5736 0.8192 -80.2338 178.0121)" width="15.194" height="15.194" fill="#70927b" data-original="#000000" style=""/>
	</g>
</g>
<g xmlns="http://www.w3.org/2000/svg">
	<g>
		
			<rect x="182.311" y="133.947" transform="matrix(0.8191 -0.5736 0.5736 0.8191 -46.842 134.5369)" width="15.193" height="15.193" fill="#70927b" data-original="#000000" style=""/>
	</g>
</g>
<g xmlns="http://www.w3.org/2000/svg">
	<g>
		
			<rect x="217.165" y="183.719" transform="matrix(0.8191 -0.5736 0.5736 0.8191 -69.088 163.5313)" width="15.193" height="15.193" fill="#70927b" data-original="#000000" style=""/>
	</g>
</g>
<g xmlns="http://www.w3.org/2000/svg">
	<g>
		
			<rect x="199.719" y="158.852" transform="matrix(0.8192 -0.5736 0.5736 0.8192 -57.9786 149.0114)" width="15.194" height="15.194" fill="#70927b" data-original="#000000" style=""/>
	</g>
</g>
<g xmlns="http://www.w3.org/2000/svg">
</g>
<g xmlns="http://www.w3.org/2000/svg">
</g>
<g xmlns="http://www.w3.org/2000/svg">
</g>
<g xmlns="http://www.w3.org/2000/svg">
</g>
<g xmlns="http://www.w3.org/2000/svg">
</g>
<g xmlns="http://www.w3.org/2000/svg">
</g>
<g xmlns="http://www.w3.org/2000/svg">
</g>
<g xmlns="http://www.w3.org/2000/svg">
</g>
<g xmlns="http://www.w3.org/2000/svg">
</g>
<g xmlns="http://www.w3.org/2000/svg">
</g>
<g xmlns="http://www.w3.org/2000/svg">
</g>
<g xmlns="http://www.w3.org/2000/svg">
</g>
<g xmlns="http://www.w3.org/2000/svg">
</g>
<g xmlns="http://www.w3.org/2000/svg">
</g>
<g xmlns="http://www.w3.org/2000/svg">
</g>
</g></svg>
